<?xml version="1.0" encoding="UTF-8"?>
<svg id="Layer_2" data-name="Layer 2" xmlns="http://www.w3.org/2000/svg" viewBox="0 0 388 80.98">
  <defs>
    <style>
      .cls-1 {
        fill: #fff;
      }

      .cls-2, .cls-3, .cls-4, .cls-5 {
        fill-rule: evenodd;
      }

      .cls-2, .cls-6 {
        fill: #345d9d;
      }

      .cls-3 {
        fill: #ffb71b;
      }

      .cls-4 {
        fill: #e08433;
      }

      .cls-5 {
        fill: #ffd600;
      }
    </style>
  </defs>
  <g id="Layer_1-2" data-name="Layer 1">
    <g>
      <g>
        <path class="cls-4" d="m90.89,8.1v47.73c0,9.42-7.56,17.05-16.89,17.05H0V25.15C0,15.77,7.6,8.1,16.89,8.1h74Z"/>
        <g>
          <polygon class="cls-1" points="35.75 26.5 31.03 22.71 27.41 27.09 32.13 30.88 35.75 26.5"/>
          <path class="cls-1" d="m70.16,35.81c-.55-1.57-1.33-2.82-2.36-3.73-1.03-.91-2.24-1.37-3.65-1.37-1.91,0-3.48.56-4.72,1.69-1.24,1.12-2.42,2.99-3.54,5.61-.34.73-.62,1.25-.84,1.56-.23.31-.56.52-.99.63-.44.11-1.12.17-2.04.17h-2.02c-1.66,0-2.84-.05-3.56-.15-.72-.1-1.27-.37-1.66-.82-.39-.45-.65-1.2-.76-2.23l-.63-5.18-5.39,1.1,1.81,15.72c-1.07.53-2.33.91-3.79,1.14-1.46.22-3.15.34-5.06.34-1.71,0-3.2-.21-4.47-.63-1.26-.42-1.89-1.18-1.89-2.28,0-1.4.55-5.39,1.64-11.97l-4.3-.93-1.05,6.78c-.65,3.74-.97,6.12-.97,7.16,0,2.95.86,5.17,2.57,6.66,1.71,1.49,4.54,2.23,8.47,2.23,1.82,0,3.8-.24,5.92-.72,2.12-.48,3.94-1.25,5.46-2.32,1.52-1.07,2.28-2.43,2.28-4.09,0-1.43-.07-3.41-.21-5.94.62,1.12,1.41,1.93,2.38,2.42.97.49,2.04.74,3.22.74h1.43c1.38,0,2.52-.13,3.43-.4.91-.27,1.66-.68,2.25-1.24l7.88,3.5c.36.14.67.21.93.21.34,0,.69-.08,1.05-.25.36-.17.79-.45,1.26-.84.73-.53,1.24-.99,1.54-1.37.29-.38.49-.77.57-1.16.42-1.57.63-3.16.63-4.76,0-1.94-.27-3.7-.82-5.27Zm-4.32,7.25l-6.28-2.87c.84-1.35,1.51-2.27,2-2.76.49-.49,1.12-.74,1.87-.74.9,0,1.57.38,2.02,1.14.45.76.67,1.74.67,2.95,0,.93-.1,1.69-.29,2.28Z"/>
        </g>
      </g>
      <g>
        <path class="cls-6" d="m157.8,35.51c-.64,13.66-9.65,25.69-24.18,26.04-17.15.42-16.11-13.93-12.35-25.87l3.39-10.77h-5.87l-4.4,14.22c-4.34,14.03-8.32,39.93,13.81,40.14,24.88,0,33.98-22.23,36.3-40.65,20.98,3.33,37.35-5.7,50.87-13.5,9.91-5.72,18.52-10.75,25.22-9.91l4.07-12.93c.8-2.56-2.49-2.79-6.75-1.54-6.39,1.86-15.52,6.7-20.79,9.38-6.91,3.51-12.88,6.43-18.58,8.63-12.29,4.75-26.08,4.13-40.11,2.9l-.65,13.86Z"/>
        <path class="cls-6" d="m193.23,78.66c15.36-10.72,20.43-27.03,25.6-43.32l-6.21,2.37c-6.6,18.07-22.91,32.76-44.65,36.76l-1.82,4.19h27.08Z"/>
        <path class="cls-6" d="m241.69,64.65c-10.88-.38-12.85-10.1-7.83-26.26,2.23-7.16,3.13-9.39,5.36-16.55-2.65,1.16-5.44,2.1-8.09,3.25l-6.85,22.68c-5.43,17.96-1.71,33.22,14.65,33.22,30.19,0,36.18-52.75,16.11-55.72-7.29-1.08-9.99,4.1-12.12,9.95l-2.3,6.33c-2.91,8.01,2.69,14.67,10.42,13.21,2.69-.51,5.84-2,7.99-3.41.34,7.67-8.92,13.6-17.34,13.3Z"/>
        <path class="cls-6" d="m256.67,0l6.37,5.32c5.2,4.33,4.66,7.18.01,11.79l-5.5,5.46-11.64-10.94L256.67,0Z"/>
      </g>
      <g>
        <path class="cls-2" d="m318.37,2.18l2.18-2.18,28.96,28.96c6.34,6.34,6.34,16.72,0,23.06l-28.96,28.96-28.96-28.96c-6.34-6.34-6.34-16.72,0-23.06l26.77-26.77Z"/>
        <g>
          <path class="cls-3" d="m383.24,52.02l-28.95,28.96-11.23-11.24-5.63-5.63-12.09-12.09c-6.34-6.34-6.34-16.72,0-23.05l12.08-12.09,14.69-14.69,2.18-2.18,28.95,28.96c.1.09.19.19.29.3,6.06,6.36,5.96,16.51-.29,22.76Z"/>
          <circle class="cls-1" cx="354.32" cy="40.49" r="4.79"/>
          <path class="cls-4" d="m325.33,28.96L354.29,0l11.23,11.24-40.47,40.48c-6.06-6.36-5.96-16.51.29-22.76Z"/>
          <circle class="cls-1" cx="336.27" cy="40.49" r="4.79"/>
          <path class="cls-5" d="m383.24,52.02l-28.95,28.96-11.23-11.24,40.47-40.48c6.06,6.36,5.96,16.51-.29,22.76Z"/>
          <circle class="cls-1" cx="372.38" cy="40.49" r="4.79"/>
        </g>
      </g>
    </g>
  </g>
</svg>