<?xml version="1.0" encoding="UTF-8"?>
<svg id="Layer_2" data-name="Layer 2" xmlns="http://www.w3.org/2000/svg" viewBox="0 0 409.15 85.39">
  <defs>
    <style>
      .cls-1, .cls-2 {
        fill: #fff;
      }

      .cls-2 {
        fill-rule: evenodd;
      }
    </style>
  </defs>
  <g id="Layer_1-2" data-name="Layer 1">
    <g>
      <g>
        <path class="cls-2" d="m341.02,56.89l12.75,12.75-15.76,15.75-30.53-30.53c-6.68-6.69-6.68-17.63,0-24.32L338.02,0l15.75,15.75-12.75,12.75c-.73.73-1.4,1.51-2,2.33-.56.76-1.09,1.6-1.57,2.5-.29.54-.56,1.12-.84,1.8-.24.61-.44,1.2-.63,1.81-.74,2.54-.98,5.11-.74,7.69.12,1.25.36,2.52.73,3.76v.03s.02.03.02.03c.13.43.32,1,.53,1.56.17.45.36.86.55,1.27v.03s.03.03.03.03l.15.32.16.32c.18.36.38.72.62,1.11l.05.08c.12.19.24.39.36.59.17.26.36.52.55.78.13.2.29.39.45.59.12.16.24.32.36.46.14.18.31.37.49.57l.34.36c.11.12.23.25.37.39Z"/>
        <path class="cls-2" d="m404.43,30.85c-.11-.11-.2-.21-.31-.31L373.59,0l-17.79,17.79-12.75,12.75c-.62.62-1.19,1.29-1.7,1.99-.51.69-.96,1.42-1.35,2.16-.27.5-.5,1.01-.71,1.53-.2.52-.38,1.05-.55,1.58-.62,2.13-.84,4.36-.62,6.56.11,1.09.32,2.18.62,3.25.14.46.3.93.47,1.38.14.36.3.72.46,1.07.11.21.21.42.32.63.15.3.33.6.51.89.12.19.23.39.36.59.14.23.31.46.48.68.11.16.23.33.36.48.1.13.2.27.33.4.12.15.24.3.37.44l.35.37c.1.11.19.2.3.31l30.53,30.54,30.53-30.54c6.59-6.59,6.69-17.29.31-24Zm-46.27,15.42c-1.98,1.97-5.18,1.97-7.16,0-1.97-1.98-1.97-5.18,0-7.16,1.98-1.97,5.18-1.97,7.16,0,1.97,1.98,1.97,5.18,0,7.16Zm15.46,1.48c-2.79,0-5.05-2.27-5.05-5.05s2.27-5.06,5.05-5.06,5.06,2.27,5.06,5.06-2.27,5.05-5.06,5.05Zm22.62-1.48c-1.97,1.97-5.18,1.97-7.15,0-1.98-1.98-1.98-5.18,0-7.16,1.97-1.97,5.18-1.97,7.15,0,1.98,1.98,1.98,5.18,0,7.16Z"/>
      </g>
      <g>
        <path class="cls-2" d="m66.9,38.72c-.8,0-1.46.26-1.98.78-.52.52-1.23,1.49-2.12,2.91l6.62,3.02c.21-.62.31-1.42.31-2.4,0-1.27-.23-2.31-.71-3.11-.47-.8-1.19-1.2-2.13-1.2Z"/>
        <path class="cls-2" d="m17.81,8.56C8.01,8.56,0,16.65,0,26.54v50.34h78.03c9.84,0,17.81-8.05,17.81-17.98V8.56H17.81Zm14.91,15.4l4.98,4-3.82,4.62-4.98-4,3.82-4.62Zm41.46,24.4c-.09.41-.29.82-.6,1.22-.31.4-.85.88-1.62,1.44-.51.41-.95.71-1.33.89-.39.18-.75.26-1.11.26-.27,0-.6-.07-.98-.22l-8.31-3.69c-.62.59-1.42,1.03-2.38,1.31-.96.28-2.17.42-3.62.42h-1.51c-1.24,0-2.38-.26-3.4-.78-1.02-.52-1.86-1.37-2.51-2.56.15,2.66.22,4.75.22,6.27,0,1.75-.8,3.18-2.4,4.31-1.6,1.12-3.52,1.94-5.76,2.45-2.24.5-4.32.75-6.24.75-4.15,0-7.13-.78-8.93-2.35-1.81-1.57-2.71-3.91-2.71-7.02,0-1.1.34-3.61,1.02-7.56l1.11-7.15,4.53.98c-1.16,6.93-1.73,11.14-1.73,12.62,0,1.16.67,1.96,2,2.4,1.34.44,2.91.67,4.72.67,2.01,0,3.79-.12,5.33-.35,1.54-.24,2.87-.64,4-1.2l-1.91-16.58,5.68-1.16.67,5.47c.12,1.1.39,1.88.8,2.36.41.47,1,.76,1.75.87.75.1,2,.15,3.75.15h2.13c.98,0,1.7-.06,2.16-.18.46-.12.81-.34,1.04-.67.24-.32.54-.87.89-1.64,1.19-2.75,2.43-4.73,3.73-5.91,1.31-1.18,2.96-1.78,4.98-1.78,1.48,0,2.76.48,3.84,1.45,1.08.96,1.91,2.27,2.49,3.93.58,1.66.87,3.51.87,5.55,0,1.69-.23,3.36-.67,5.02Z"/>
      </g>
      <g>
        <path class="cls-1" d="m166.39,37.45c-.68,14.4-10.18,27.09-25.5,27.47-18.08.45-16.98-14.69-13.02-27.28l3.58-11.36h-6.19l-4.64,14.99c-4.58,14.79-8.77,42.11,14.56,42.33,26.24,0,35.83-23.44,38.28-42.87,22.13,3.51,39.38-6.02,53.64-14.24,10.45-6.03,19.53-11.33,26.6-10.45l4.3-13.63c.85-2.7-2.62-2.94-7.12-1.63-6.74,1.97-16.36,7.07-21.92,9.89-7.29,3.7-13.58,6.78-19.59,9.1-12.96,5.01-27.5,4.36-42.29,3.06l-.69,14.62Z"/>
        <path class="cls-1" d="m203.75,82.95c16.19-11.3,21.54-28.5,26.99-45.68l-6.55,2.5c-6.96,19.06-24.16,34.54-47.09,38.77l-1.92,4.41h28.56Z"/>
        <path class="cls-1" d="m254.85,68.17c-11.47-.4-13.56-10.65-8.26-27.7,2.35-7.55,3.3-9.9,5.65-17.45-2.79,1.22-5.73,2.21-8.53,3.43l-7.23,23.91c-5.72,18.94-1.81,35.03,15.44,35.03,31.84,0,38.15-55.63,16.99-58.76-7.69-1.14-10.54,4.33-12.78,10.49l-2.43,6.68c-3.07,8.44,2.83,15.48,10.99,13.93,2.84-.54,6.16-2.11,8.43-3.59.36,8.09-9.41,14.34-18.28,14.03Z"/>
        <path class="cls-1" d="m270.65,0l6.72,5.61c5.48,4.56,4.92,7.57.01,12.44l-5.8,5.76-12.28-11.53L270.65,0Z"/>
      </g>
    </g>
  </g>
</svg>